<?xml version="1.0" encoding="UTF-8"?>
<svg id="_レイヤー_1" data-name="レイヤー 1" xmlns="http://www.w3.org/2000/svg" viewBox="0 0 664.83 178.46">
  <defs>
    <style>
      .cls-1 {
        stroke-width: .21px;
      }

      .cls-1, .cls-2 {
        fill: #fff;
      }

      .cls-1, .cls-3, .cls-4 {
        stroke-miterlimit: 10;
      }

      .cls-1, .cls-4 {
        stroke: #231815;
      }

      .cls-5, .cls-2 {
        stroke-width: 0px;
      }

      .cls-5, .cls-3, .cls-4 {
        fill: #231815;
      }

      .cls-3 {
        stroke: #fff;
        stroke-width: .29px;
      }

      .cls-4 {
        stroke-width: .3px;
      }
    </style>
  </defs>
  <g>
    <path class="cls-5" d="m174.02,38.87h-21.07v15.34h20.45v5.42h-20.45v20.07h21.07v5.42h-26.81v-51.67h26.81v5.42Z"/>
    <path class="cls-5" d="m182.77,85.13l8.6-54.54,19.83,43.62,20.22-43.7,8.06,54.62h-5.89l-4.88-35.95-17.59,38.12-17.35-38.12-5.11,35.95h-5.89Z"/>
    <path class="cls-5" d="m248.61,59.33c0-15.42,12.01-26.73,26.88-26.73s26.88,11.31,26.88,26.73-11.93,26.73-26.88,26.73-26.88-11.39-26.88-26.73Zm5.89,0c0,11.85,9.37,21.31,21,21.31s21-9.45,21-21.31-9.38-21.31-21-21.31-21,9.45-21,21.31Z"/>
    <path class="cls-5" d="m325.61,38.87v46.25h-5.73v-46.25h-12.55v-5.42h30.84v5.42h-12.55Z"/>
    <path class="cls-5" d="m351.64,33.45v51.67h-5.73v-51.67h5.73Z"/>
    <path class="cls-5" d="m362.17,59.33c0-15.42,12.01-26.73,26.88-26.73s26.88,11.31,26.88,26.73-11.93,26.73-26.88,26.73-26.88-11.39-26.88-26.73Zm5.89,0c0,11.85,9.37,21.31,21,21.31s21-9.45,21-21.31-9.38-21.31-21-21.31-21,9.45-21,21.31Z"/>
    <path class="cls-5" d="m426.47,85.13V31.28l40.29,42.22v-40.05h5.73v54l-40.29-42.23v39.9h-5.73Z"/>
    <path class="cls-5" d="m503.85,85.13V31.28l40.29,42.22v-40.05h5.73v54l-40.29-42.23v39.9h-5.73Z"/>
    <path class="cls-5" d="m590,38.87h-21.07v15.34h20.45v5.42h-20.45v20.07h21.07v5.42h-26.81v-51.67h26.81v5.42Z"/>
    <path class="cls-5" d="m610.21,58.4l-13.87-24.95h6.51l10.69,19.45,11-19.45h6.51l-14.18,24.95,14.95,26.73h-6.51l-11.85-21.23-12.01,21.23h-6.51l15.26-26.73Z"/>
    <path class="cls-5" d="m652.28,38.87v46.25h-5.73v-46.25h-12.55v-5.42h30.84v5.42h-12.55Z"/>
  </g>
  <g>
    <circle class="cls-4" cx="60.04" cy="60.04" r="59.89"/>
    <circle class="cls-3" cx="60.04" cy="60.04" r="57.16"/>
    <circle class="cls-1" cx="59.81" cy="60.05" r="36.75"/>
    <g>
      <path class="cls-2" d="m25.45,34.46l1.76,1.13-3.07,4.77-10.18-6.54,3.07-4.77,1.74,1.12-1.94,3.02,2.46,1.58,1.55-2.41,1.75,1.12-1.55,2.41,2.47,1.59,1.94-3.02Z"/>
      <path class="cls-2" d="m24.02,21.2l1.46-1.45,8.54,8.57-1.47,1.46-4.19-4.21,1.58,2.77-1.43,1.43-2.75-1.61,4.19,4.21-1.47,1.46-8.54-8.57,1.46-1.45,5.43,2.83-2.81-5.44Z"/>
      <path class="cls-2" d="m32.98,14.5c.58-.37,1.39-.21,1.76.39l5.12,8.05c.37.58.19,1.39-.39,1.76l-2.63,1.67c-.6.38-1.39.19-1.76-.39l-5.12-8.05c-.38-.6-.2-1.39.39-1.77l2.63-1.67Zm.43,2.19l-1.27.81,4.26,6.7,1.27-.81-4.26-6.7Z"/>
      <path class="cls-2" d="m42.91,12.13l3.56,9.37-1.96.74-3.56-9.37-2,.76-.74-1.94,5.96-2.26.74,1.94-2,.76Z"/>
      <path class="cls-2" d="m48.29,8.41l2.03-.42,2.44,11.85-2.03.42-2.44-11.85Z"/>
      <path class="cls-2" d="m58.86,7.1c.69-.04,1.31.5,1.34,1.21l.5,9.53c.04.69-.52,1.31-1.21,1.34l-3.11.16c-.71.04-1.31-.52-1.34-1.21l-.5-9.53c-.04-.71.5-1.31,1.21-1.34l3.11-.16Zm-.7,2.11l-1.5.08.41,7.92,1.5-.08-.41-7.92Z"/>
      <path class="cls-2" d="m70.31,8.03l-1.7,11.98-2.05-.29-.76-5.45-.74,5.24-2.05-.29,1.7-11.98,2.04.29.81,5.12.7-4.91,2.07.29Z"/>
      <path class="cls-2" d="m85.02,13.28l-5.13,10.96-1.88-.88.86-5.44-2.24,4.79-1.88-.88,5.13-10.96,1.86.87-.73,5.14,2.1-4.49,1.89.89Z"/>
      <path class="cls-2" d="m87.62,27.02l-1.23,1.69-4.58-3.34,7.13-9.78,4.58,3.34-1.22,1.68-2.91-2.12-1.72,2.36,2.32,1.69-1.22,1.68-2.32-1.69-1.73,2.38,2.91,2.12Z"/>
      <path class="cls-2" d="m101.18,26.58l-5.72,2.69-3.2,5.49-1.46-1.59,1.76-2.88-3.04,1.49-1.46-1.59,5.75-2.71,3.17-5.47,1.47,1.61-1.69,2.81,2.94-1.45,1.47,1.61Z"/>
      <path class="cls-2" d="m104.34,35.02l-8.62,5.11-1.07-1.8,8.62-5.11-1.09-1.84,1.78-1.06,3.25,5.49-1.78,1.06-1.09-1.84Z"/>
    </g>
    <g>
      <path class="cls-2" d="m109.85,68.51l-8.43-.98.22-1.91,3.28.38.16-1.37-3.28-.38.22-1.89,8.43.98-.22,1.89-3.25-.38-.16,1.37,3.25.38-.22,1.91Z"/>
      <path class="cls-2" d="m101.85,73.65l-1.84-.48,1.31-5.04,8.2,2.13-1.31,5.04-1.84-.48.83-3.2-1.32-.34-.66,2.55-1.86-.48.66-2.55-1.34-.35-.83,3.2Z"/>
      <path class="cls-2" d="m97.94,78.3l.72-1.76,1.82.74.53-1.29-1.82-.74.72-1.76,6.76,2.75c.6.24.89.93.64,1.53l-1.07,2.65c-.25.6-.93.89-1.53.65l-6.76-2.75Zm6.8.71l.53-1.29-2.49-1.01-.53,1.29,2.48,1.01Z"/>
      <path class="cls-2" d="m103.12,86.43c-.32.57-1.03.77-1.6.46l-5.36-2.97c-.57-.32-.77-1.03-.46-1.6l1.96-3.53,7.41,4.11-1.96,3.53Zm-1.3-1.58l.67-1.21-4.07-2.26-.67,1.21,4.07,2.26Z"/>
      <path class="cls-2" d="m101.54,88.82l-1.11,1.55-6.89-4.93,1.11-1.55,6.89,4.93Z"/>
      <path class="cls-2" d="m89.73,89.94l1.27-1.44,4.93,4.34.91-1.04-4.93-4.34,1.26-1.43,6.36,5.6-2.67,3.03c-.43.49-1.17.53-1.66.11l-5.48-4.83Z"/>
      <path class="cls-2" d="m89.22,96.44c-.49.43-1.24.36-1.65-.12l-1.44-1.67c-.41-.48-.37-1.23.12-1.66l2.16-1.86c.49-.42,1.24-.36,1.66.12l4,4.64c.42.49.37,1.23-.12,1.66l-2.16,1.86c-.49.42-1.23.37-1.66-.12l-1.05-1.21,1.17-1.59.86,1,1.05-.9-3.03-3.52-1.05.9.47.54.77-.66.99,1.68-1.07.92Z"/>
      <path class="cls-2" d="m82.75,103.11l-3.2-5.74,1.68-.94,3.2,5.74,1.72-.96.93,1.66-5.12,2.85-.93-1.66,1.72-.96Z"/>
      <path class="cls-2" d="m76.77,107.83c-.61.23-1.28-.07-1.52-.67l-2.21-5.71c-.23-.59.07-1.28.67-1.52l2.67-1.03c.61-.23,1.29.08,1.52.67l2.21,5.71c.23.61-.07,1.28-.67,1.52l-2.66,1.03Zm0-2.05l1.29-.5-1.68-4.34-1.29.5,1.68,4.34Z"/>
      <path class="cls-2" d="m67.01,108.3l-1.1-6.48,1.89-.32,1.1,6.48,1.94-.33.32,1.88-5.78.98-.32-1.88,1.94-.33Z"/>
      <path class="cls-2" d="m58.59,110.78l-.23-8.47,1.92-.05.09,3.3,1.38-.04-.09-3.3,1.9-.05.23,8.47-1.9.05-.09-3.27-1.38.04.09,3.27-1.92.05Z"/>
      <path class="cls-2" d="m52.39,103.62l.21-1.89,5.18.57-.92,8.43-5.18-.57.21-1.89,3.28.36.15-1.36-2.62-.29.21-1.91,2.62.29.15-1.37-3.28-.36Z"/>
      <path class="cls-2" d="m44.73,99.55l1.83.58-1.97,6.27,1.32.41,1.97-6.27,1.82.57-2.54,8.08-3.84-1.21c-.62-.2-.96-.85-.77-1.47l2.19-6.96Z"/>
      <path class="cls-2" d="m38.65,98.83l.81-1.72,4.71,2.23-3.63,7.66-4.71-2.23.81-1.72,2.99,1.41.58-1.23-2.38-1.13.82-1.74,2.38,1.13.59-1.25-2.99-1.41Z"/>
      <path class="cls-2" d="m33.72,98.48l1.14-4.3,1.71,1.1-.6,1.81,1.4-1.29,1.71,1.1-3.44,2.83-1.14,4.3-1.61-1.05.49-1.85-1.48,1.22-1.62-1.04,3.43-2.81Z"/>
      <path class="cls-2" d="m27.29,96.41l4.28-4.99,1.46,1.25-4.28,4.99,1.49,1.28-1.24,1.45-4.45-3.82,1.24-1.45,1.49,1.28Z"/>
      <path class="cls-2" d="m21.46,87.97c-.4-.51-.3-1.25.21-1.65l2.26-1.75c.5-.39,1.25-.3,1.65.21l1.75,2.26c.4.51.29,1.26-.21,1.65l-.77.59-1.53-1.23.54-.42-.85-1.09-1.09.85,1.29,1.67c.4.51.3,1.25-.21,1.65l-2.25,1.74c-.5.39-1.24.29-1.64-.22l-1.75-2.26c-.4-.52-.31-1.25.2-1.64l.75-.58,1.53,1.25-.51.4.85,1.09,1.08-.84-1.3-1.68Z"/>
      <path class="cls-2" d="m17.08,83.58l5.7-3.27.96,1.67-5.7,3.27.98,1.71-1.65.95-2.92-5.08,1.65-.95.98,1.71Z"/>
      <path class="cls-2" d="m19.73,73.47l.71,1.77-1.83.74.52,1.3,1.83-.74.71,1.77-6.77,2.73c-.6.24-1.29-.05-1.53-.65l-1.07-2.65c-.24-.6.05-1.29.65-1.53l6.77-2.73Zm-5.38,4.22l.52,1.3,2.49-1-.52-1.3-2.49,1Z"/>
      <path class="cls-2" d="m14.14,70.12c-.16-.63.24-1.27.85-1.43l2.14-.54c.62-.16,1.27.22,1.43.85l.7,2.77c.16.63-.24,1.27-.85,1.43l-5.94,1.5c-.63.16-1.27-.22-1.43-.85l-.7-2.77c-.16-.63.22-1.27.85-1.43l1.55-.39.9,1.75-1.28.32.34,1.34,4.51-1.14-.34-1.34-.69.18.25.98-1.95.13-.35-1.37Z"/>
      <path class="cls-2" d="m15.7,62.31l1.89-.21.58,5.18-8.43.94-.58-5.18,1.89-.21.37,3.28,1.36-.15-.29-2.62,1.91-.21.29,2.62,1.37-.15-.36-3.28Z"/>
    </g>
    <g>
      <path class="cls-5" d="m48.21,69.51v5.23h-14.17v-30.25h14.17v5.19h-8.99v7.3h7.17v5.19h-7.17v7.35h8.99Zm-13.78-24.33v28.82l1.99-1.99v-24.85l-1.99-1.99Zm11.02,1.69l1.99-1.99h-12.7l1.99,1.99h8.73Zm.22,10.54h-6.57l-1.94,1.94h6.57l1.94-1.94Zm1.81,12.53h-8.38l-1.94,1.99h8.34l1.99-1.99Z"/>
      <path class="cls-5" d="m60.22,44.49h5.23l-9.03,30.25h-5.27l9.07-30.25Zm1.6,2.55l-1.34-1.9-8.69,28.82,2.46-1.9,7.56-25.02Zm.26-.35l2.46-1.81h-3.76l1.3,1.81Z"/>
      <path class="cls-5" d="m83.6,44.49v30.25h-5.19l-3.8-13.22v13.22h-5.19v-30.25h5.14l3.8,12.4v-12.4h5.23Zm-11.8,2.68l-1.99-1.99v28.82l1.99-1.99v-24.85Zm.17-.43l1.9-1.86h-3.76l1.86,1.86Zm2.64,13.31l4.06,14.09,1.82-1.81-7.95-24.5,2.07,12.23Zm6.18-12.88l-1.99-1.99v13.09l1.99,11.54v-22.64Zm.17-.43l1.86-1.86h-3.72l1.86,1.86Z"/>
    </g>
  </g>
  <g>
    <path class="cls-5" d="m18.52,160.44c-.67-1.62-2.34-4.72-3.72-7.25v25.07h-3.48v-23.22c-1.62,5.34-3.77,10.44-5.96,13.59-.43-1-1.29-2.53-1.95-3.38,3.1-3.96,6.1-11.49,7.53-17.97h-6.44v-3.34h6.82v-9.15h3.48v9.15h6.06v3.34h-6.06v1.57c1.29,1.76,5.05,7.68,5.86,9.11l-2.14,2.48Zm19.5-1.86c2.38,5.62,6.39,11.3,10.25,14.3-.86.62-1.95,1.81-2.57,2.72-3.58-3.29-7.25-9.01-9.73-14.83v17.54h-3.48v-17.11c-2.91,6.01-7.2,11.58-11.58,14.78-.57-.86-1.62-2.1-2.43-2.72,4.67-2.96,9.25-8.77,12.01-14.68h-9.29v-3.24h11.3v-8.39h-5.91c-.86,2.67-1.86,5.1-3.1,7.01-.62-.52-2.05-1.43-2.91-1.76,2.53-3.72,4.05-9.39,4.86-15.16l3.29.57c-.33,2.1-.76,4.15-1.24,6.1h5.01v-8.87h3.48v8.87h9.3v3.24h-9.3v8.39h10.96v3.24h-8.91Z"/>
    <path class="cls-5" d="m80.47,147.09c1.15,16.07,4.91,27.65,9.63,27.65,1.29,0,1.86-2.62,2.14-8.96.81.81,2.14,1.57,3.15,1.95-.62,8.25-1.95,10.68-5.58,10.68-7.77,0-11.73-13.68-12.97-31.32h-24.6v-3.43h24.36c-.14-2.81-.19-5.72-.24-8.63h3.72c0,2.96.05,5.82.19,8.63h14.11v3.43h-13.92Zm-14.59,23.6c3.34-.72,6.77-1.38,10.2-2.15l.29,3.1c-8.06,1.95-16.78,3.96-22.83,5.29l-1.1-3.48c2.67-.52,6.15-1.24,9.96-2v-13.82h-8.48v-3.43h20.88v3.43h-8.91v13.06Zm24.07-27.6c-1.38-1.67-4.34-4.24-6.77-5.96l2.38-1.95c2.43,1.62,5.43,4.05,6.86,5.67l-2.48,2.24Z"/>
    <path class="cls-5" d="m122.4,134.89c5.01,7.01,13.3,13.2,20.78,16.3-.81.86-1.67,2.1-2.29,3.15-7.34-3.57-15.68-9.92-20.12-16.07-3.86,5.72-11.58,12.25-19.69,16.26-.38-.81-1.29-2.1-2.05-2.81,8.15-3.91,16.07-10.77,19.74-16.83h3.62Zm-20.88,23.69h39.18v3.29h-22.36c-1.67,3.53-3.72,7.63-5.62,10.96,5.91-.19,12.63-.43,19.31-.71-1.95-2.24-4.2-4.58-6.29-6.44l3-1.62c4.39,3.77,9.01,8.91,11.2,12.44l-3.19,1.95c-.57-.95-1.29-2.05-2.19-3.19-11.68.57-24.03,1.1-32.18,1.38l-.48-3.48c2.05-.05,4.43-.1,7.01-.19,1.81-3.29,3.86-7.63,5.15-11.11h-12.54v-3.29Zm30.65-9.06v3.24h-22.55v-3.24h22.55Z"/>
    <path class="cls-5" d="m164.61,164.64c-1.24-1.38-3.86-4.05-6.01-6.05v19.74h-3.48v-18.5c-2.38,2.39-4.86,4.39-7.29,5.96-.38-.91-1.29-2.53-1.86-3.19,5.67-3.29,11.63-9.3,14.92-15.63h-13.25v-3.24h7.48v-8.87h3.48v8.87h4.15l.62-.14,2,1.33c-1.48,3.67-3.67,7.2-6.19,10.39,2.24,1.76,6.44,5.43,7.63,6.48l-2.19,2.86Zm26.27,8.87v3.48h-26.7v-3.48h12.06v-19.78h-10.2v-3.43h10.2v-15.11h3.53v15.11h10.15v3.43h-10.15v19.78h11.11Z"/>
    <path class="cls-5" d="m203.44,143.09h26.22c1.43,0,2.91-.14,4.05-.29v4.19c-1.19-.14-2.72-.19-4.05-.19h-11.44v21.93h14.01c1.43,0,2.72-.14,3.96-.29v4.34c-1.29-.19-3-.19-3.96-.19h-31.51c-1.28,0-2.72.05-4.19.19v-4.34c1.43.19,2.91.29,4.19.29h13.45v-21.93h-10.73c-.9,0-2.81.05-4,.19v-4.19c1.24.19,3.05.29,4,.29Z"/>
    <path class="cls-5" d="m253.14,141.04h22.69c1.53,0,2.86-.1,3.91-.19v3.81c-1.15-.05-2.24-.14-3.91-.14h-12.39v10.11h16.07c1,0,2.91-.1,3.96-.19v3.91c-1.09-.14-2.81-.14-3.86-.14h-16.16v9.58c0,2.39,1.67,3.81,6.06,3.81s8.43-.19,12.54-.67l-.24,4c-3.72.29-8.29.48-12.82.48-7.2,0-9.49-2.52-9.49-6.44v-10.77h-9.3c-1.19,0-3.15.1-4.48.19v-4.01c1.29.1,3.24.24,4.48.24h9.3v-10.11h-6.34c-1.62,0-3,.05-4.29.14v-3.81c1.28.1,2.67.19,4.29.19Z"/>
    <path class="cls-5" d="m299.41,154.29h26.12c2.38,0,4.1-.14,5.15-.24v4.67c-.95-.05-2.95-.24-5.1-.24h-26.17c-2.62,0-5.15.1-6.63.24v-4.67c1.43.1,3.96.24,6.63.24Z"/>
    <path class="cls-5" d="m353.25,155.25l-2.19,3.34c-2.34-1.72-7.53-5.05-10.39-6.53l2.1-3.24c2.81,1.53,8.39,4.91,10.49,6.43Zm5.53,11.35c7.91-4.53,14.2-10.72,18.06-17.45l2.29,3.91c-4.1,6.44-10.72,12.58-18.31,17.06-4.82,2.77-11.39,5.01-15.83,5.91l-2.19-3.86c5.24-.9,11.16-2.81,15.97-5.58Zm1.53-21.78l-2.24,3.24c-2.29-1.72-7.43-5.15-10.25-6.77l2.15-3.19c2.81,1.57,8.29,5.2,10.34,6.72Z"/>
    <path class="cls-5" d="m398.8,148.71h18.45c1.05,0,2.29-.05,2.91-.1-.05.52-.05,1.53-.05,2.43v23.74c0,.76.05,1.91.1,2.58h-3.77c.05-.43.05-1.15.05-1.91h-19.16c-1.53,0-3.19.1-3.96.1v-3.81c.76.1,2.29.19,3.91.19h19.21v-8.48h-17.21c-1.67,0-3.33.05-4.29.1v-3.67c.9.05,2.62.14,4.24.14h17.26v-7.91h-17.69c-1.24,0-4,.1-4.86.14v-3.72c.9.1,3.62.19,4.86.19Z"/>
    <path class="cls-5" d="m456.79,164.73c7.34-4.62,13.16-11.68,15.92-17.54l2.29,4.05c-3.24,5.96-8.82,12.44-16.02,16.97-4.77,3-10.77,5.91-18.73,7.39l-2.53-3.91c8.34-1.24,14.54-4.15,19.07-6.96Zm-2.81-15.11l-3,3c-2.38-2.48-8.34-7.58-11.87-9.96l2.72-2.91c3.38,2.24,9.49,7.2,12.16,9.87Z"/>
    <path class="cls-5" d="m504.78,140.71v3.05h7.86c1.1,0,2.19-.05,3-.29l2.48,2.38c-.86.9-1.91,2-2.67,2.86-2.38,2.86-6.39,6.86-10.78,9.92,0,3.91-.05,9.63-.05,12.82,0,1.67.14,3.77.24,5.24h-4.34c.14-1.38.28-3.58.28-5.24,0-2.77.05-7.15.05-10.39-4.43,2.58-9.68,4.67-16.11,6.63l-2.29-3.53c9.01-2.15,14.97-5.29,19.31-8.1,4.24-2.72,8.06-6.48,9.68-8.72h-19.78c-1.67,0-4.38.1-5.86.19v-4c1.53.19,4.2.24,5.77.24h9.34v-3.05c0-1.34-.05-3.15-.24-4.2h4.39c-.19,1.05-.29,2.86-.29,4.2Zm4.1,20.26l2.48-2.81c4.48,2.38,7.05,3.91,11.49,6.91l-2.48,3.24c-4.15-3.05-7.01-4.96-11.49-7.34Z"/>
    <path class="cls-5" d="m549.9,141.42c-.33.67-.72,1.34-1.15,2h12.92c1.29,0,2.34-.14,3.1-.48l3.19,1.95c-.38.67-.86,1.76-1.09,2.53-1.29,4.81-4.24,11.25-8.48,16.4-4.34,5.29-10.01,9.68-18.97,12.97l-3.43-3.1c8.72-2.57,14.68-6.91,19.02-11.96,3.72-4.39,6.63-10.53,7.63-14.87h-16.11c-2.91,4-6.91,8.25-12.11,11.73l-3.29-2.48c8.2-4.91,12.92-11.82,14.97-16.11.48-.81,1.19-2.52,1.48-3.77l4.43,1.43c-.81,1.24-1.67,2.86-2.1,3.77Z"/>
    <path class="cls-5" d="m611.03,144.9c-1.62,4.1-4.62,9.68-8.01,13.97,5,4.29,10.82,10.49,13.92,14.25l-3.34,2.86c-3.19-4.19-8.25-9.82-13.11-14.16-5.1,5.48-11.54,10.73-18.59,13.92l-3.05-3.19c7.67-3,14.73-8.68,19.64-14.16,3.24-3.67,6.72-9.3,7.91-13.25h-18.59c-1.67,0-4.29.19-4.81.24v-4.34c.67.1,3.38.29,4.81.29h18.4c1.57,0,2.81-.14,3.57-.38l2.43,1.86c-.29.38-.9,1.43-1.19,2.1Z"/>
    <path class="cls-5" d="m637.85,142.76c0-1.34-.1-3.48-.38-4.96h4.67c-.14,1.48-.33,3.53-.33,4.96v7.77c6.29,1.91,15.35,5.34,20.35,7.87l-1.62,4.05c-5.2-2.81-13.45-6-18.74-7.67.05,7.15.05,14.35.05,15.73,0,1.48.1,4.05.29,5.63h-4.62c.24-1.53.33-3.86.33-5.63v-27.74Z"/>
  </g>
</svg>