<?xml version="1.0" encoding="UTF-8"?>
<svg id="_レイヤー_1" data-name="レイヤー 1" xmlns="http://www.w3.org/2000/svg" viewBox="0 0 263.76 263.76">
  <defs>
    <style>
      .cls-1, .cls-2 {
        stroke-width: 0px;
      }

      .cls-1, .cls-3 {
        fill: #231815;
      }

      .cls-2, .cls-4 {
        fill: #e4ddd4;
      }

      .cls-5 {
        fill: #fff;
        stroke-width: .5px;
      }

      .cls-5, .cls-4, .cls-3 {
        stroke-miterlimit: 10;
      }

      .cls-5, .cls-3 {
        stroke: #fff;
      }

      .cls-4 {
        stroke: #231815;
        stroke-width: .48px;
      }

      .cls-3 {
        stroke-width: .35px;
      }
    </style>
  </defs>
  <circle class="cls-5" cx="131.88" cy="131.88" r="131.63"/>
  <circle class="cls-4" cx="131.88" cy="131.88" r="125.65"/>
  <circle class="cls-3" cx="131.38" cy="131.9" r="80.77"/>
  <g>
    <path class="cls-1" d="m55.86,75.67l3.87,2.48-6.74,10.48-22.37-14.38,6.74-10.48,3.83,2.46-4.27,6.65,5.4,3.47,3.41-5.31,3.84,2.47-3.41,5.31,5.43,3.49,4.27-6.65Z"/>
    <path class="cls-1" d="m52.72,46.52l3.2-3.19,18.76,18.84-3.23,3.22-9.22-9.26,3.48,6.08-3.15,3.14-6.04-3.53,9.22,9.26-3.23,3.22-18.76-18.85,3.2-3.19,11.94,6.23-6.18-11.97Z"/>
    <path class="cls-1" d="m72.41,31.8c1.28-.82,3.05-.45,3.88.86l11.25,17.7c.81,1.28.42,3.07-.86,3.88l-5.77,3.67c-1.31.83-3.07.42-3.88-.87l-11.25-17.7c-.83-1.31-.45-3.05.87-3.88l5.77-3.67Zm.94,4.8l-2.79,1.77,9.36,14.72,2.79-1.77-9.36-14.72Z"/>
    <path class="cls-1" d="m94.23,26.59l7.82,20.6-4.3,1.63-7.82-20.6-4.4,1.67-1.62-4.26,13.1-4.98,1.62,4.26-4.4,1.67Z"/>
    <path class="cls-1" d="m106.07,18.41l4.46-.92,5.37,26.04-4.46.92-5.37-26.04Z"/>
    <path class="cls-1" d="m129.29,15.52c1.52-.08,2.87,1.11,2.95,2.66l1.09,20.94c.08,1.52-1.14,2.88-2.66,2.95l-6.83.36c-1.56.08-2.88-1.14-2.96-2.66l-1.09-20.94c-.08-1.55,1.1-2.87,2.66-2.95l6.83-.36Zm-1.55,4.65l-3.3.17.91,17.41,3.3-.17-.91-17.41Z"/>
    <path class="cls-1" d="m154.47,17.56l-3.74,26.32-4.51-.64-1.68-11.98-1.63,11.51-4.51-.64,3.74-26.32,4.48.63,1.78,11.26,1.53-10.79,4.55.65Z"/>
    <path class="cls-1" d="m186.79,29.11l-11.27,24.08-4.13-1.93,1.9-11.95-4.93,10.53-4.13-1.93,11.27-24.09,4.1,1.92-1.6,11.29,4.62-9.88,4.16,1.95Z"/>
    <path class="cls-1" d="m192.5,59.32l-2.71,3.72-10.07-7.35,15.68-21.49,10.07,7.34-2.69,3.69-6.39-4.66-3.78,5.19,5.1,3.72-2.69,3.68-5.1-3.72-3.81,5.22,6.39,4.66Z"/>
    <path class="cls-1" d="m222.31,58.33l-12.57,5.91-7.03,12.07-3.21-3.5,3.88-6.34-6.68,3.29-3.21-3.5,12.63-5.96,6.98-12.01,3.23,3.53-3.71,6.18,6.46-3.19,3.24,3.53Z"/>
    <path class="cls-1" d="m229.27,76.9l-18.96,11.23-2.34-3.96,18.96-11.23-2.4-4.05,3.92-2.32,7.14,12.06-3.92,2.32-2.4-4.05Z"/>
  </g>
  <g>
    <path class="cls-1" d="m241.38,150.51l-18.52-2.14.49-4.2,7.21.83.35-3.02-7.22-.83.48-4.16,18.52,2.14-.48,4.16-7.15-.83-.35,3.02,7.14.83-.48,4.2Z"/>
    <path class="cls-1" d="m223.78,161.81l-4.05-1.05,2.88-11.07,18.03,4.68-2.87,11.07-4.05-1.05,1.82-7.02-2.9-.75-1.46,5.6-4.08-1.06,1.46-5.6-2.94-.76-1.83,7.02Z"/>
    <path class="cls-1" d="m215.2,172.03l1.58-3.88,4.01,1.63,1.16-2.84-4.01-1.63,1.58-3.88,14.87,6.05c1.32.54,1.96,2.04,1.42,3.36l-2.36,5.82c-.54,1.32-2.04,1.96-3.37,1.42l-14.86-6.05Zm14.95,1.56l1.16-2.84-5.46-2.22-1.16,2.84,5.46,2.22Z"/>
    <path class="cls-1" d="m226.57,189.9c-.69,1.25-2.26,1.7-3.51,1l-11.78-6.53c-1.25-.69-1.7-2.26-1-3.51l4.3-7.75,16.29,9.04-4.3,7.75Zm-2.87-3.47l1.47-2.65-8.94-4.96-1.48,2.65,8.94,4.96Z"/>
    <path class="cls-1" d="m223.11,195.14l-2.44,3.4-15.15-10.84,2.44-3.41,15.15,10.84Z"/>
    <path class="cls-1" d="m197.15,197.6l2.79-3.17,10.84,9.55,2.01-2.28-10.84-9.55,2.77-3.14,13.98,12.31-5.86,6.65c-.94,1.07-2.57,1.17-3.64.23l-12.05-10.61Z"/>
    <path class="cls-1" d="m196.03,211.89c-1.08.93-2.73.79-3.64-.27l-3.16-3.67c-.91-1.06-.81-2.71.27-3.64l4.76-4.09c1.08-.93,2.73-.79,3.64.27l8.78,10.2c.93,1.08.81,2.71-.27,3.64l-4.76,4.1c-1.09.93-2.71.81-3.64-.27l-2.3-2.67,2.56-3.49,1.89,2.19,2.3-1.98-6.67-7.75-2.3,1.98,1.02,1.19,1.69-1.46,2.17,3.7-2.35,2.02Z"/>
    <path class="cls-1" d="m181.81,226.56l-7.04-12.62,3.69-2.06,7.04,12.62,3.78-2.11,2.04,3.66-11.25,6.27-2.04-3.66,3.78-2.11Z"/>
    <path class="cls-1" d="m168.66,236.92c-1.33.52-2.82-.14-3.34-1.48l-4.85-12.56c-.5-1.3.15-2.82,1.48-3.34l5.86-2.26c1.33-.52,2.83.18,3.34,1.48l4.85,12.56c.51,1.33-.14,2.82-1.48,3.34l-5.86,2.26Zm.02-4.5l2.83-1.09-3.68-9.53-2.83,1.09,3.68,9.53Z"/>
    <path class="cls-1" d="m147.21,237.97l-2.42-14.25,4.16-.71,2.42,14.25,4.27-.73.7,4.13-12.7,2.16-.7-4.13,4.27-.72Z"/>
    <path class="cls-1" d="m128.7,243.43l-.51-18.62,4.22-.12.2,7.25,3.03-.08-.2-7.25,4.18-.12.51,18.62-4.18.12-.2-7.18-3.03.08.2,7.18-4.22.12Z"/>
    <path class="cls-1" d="m115.07,227.67l.46-4.16,11.38,1.25-2.03,18.53-11.38-1.25.45-4.16,7.22.79.33-2.98-5.76-.63.46-4.2,5.76.63.33-3.02-7.22-.79Z"/>
    <path class="cls-1" d="m98.24,218.74l4.03,1.27-4.33,13.77,2.9.91,4.33-13.77,3.99,1.25-5.58,17.77-8.45-2.66c-1.36-.43-2.11-1.87-1.69-3.24l4.81-15.31Z"/>
    <path class="cls-1" d="m84.87,217.15l1.79-3.79,10.35,4.9-7.97,16.85-10.35-4.9,1.79-3.79,6.56,3.11,1.28-2.71-5.24-2.48,1.8-3.82,5.24,2.48,1.3-2.74-6.56-3.1Z"/>
    <path class="cls-1" d="m74.04,216.38l2.51-9.46,3.76,2.42-1.31,3.97,3.07-2.84,3.76,2.42-7.56,6.21-2.51,9.46-3.53-2.31,1.08-4.07-3.26,2.68-3.55-2.28,7.54-6.18Z"/>
    <path class="cls-1" d="m59.89,211.84l9.42-10.96,3.2,2.75-9.42,10.96,3.28,2.82-2.73,3.18-9.77-8.39,2.73-3.18,3.28,2.82Z"/>
    <path class="cls-1" d="m47.1,193.28c-.88-1.13-.67-2.75.46-3.62l4.97-3.85c1.11-.86,2.75-.67,3.63.46l3.85,4.97c.88,1.13.64,2.77-.46,3.62l-1.68,1.3-3.37-2.69,1.19-.92-1.86-2.4-2.4,1.86,2.84,3.67c.88,1.13.67,2.75-.46,3.62l-4.94,3.83c-1.1.85-2.72.65-3.59-.48l-3.85-4.97c-.88-1.13-.67-2.75.43-3.6l1.65-1.28,3.36,2.74-1.13.88,1.86,2.4,2.37-1.84-2.86-3.7Z"/>
    <path class="cls-1" d="m37.47,183.64l12.53-7.2,2.1,3.66-12.53,7.2,2.16,3.75-3.63,2.08-6.42-11.16,3.63-2.09,2.16,3.75Z"/>
    <path class="cls-1" d="m43.29,161.41l1.56,3.88-4.01,1.62,1.15,2.85,4.01-1.62,1.57,3.88-14.89,6c-1.33.53-2.83-.1-3.36-1.43l-2.35-5.83c-.53-1.33.1-2.83,1.43-3.36l14.89-6Zm-11.83,9.28l1.15,2.85,5.47-2.21-1.15-2.85-5.47,2.21Z"/>
    <path class="cls-1" d="m31,154.04c-.35-1.39.52-2.79,1.87-3.14l4.7-1.19c1.35-.34,2.79.48,3.14,1.87l1.54,6.09c.35,1.39-.52,2.79-1.87,3.14l-13.06,3.3c-1.39.35-2.79-.48-3.14-1.87l-1.54-6.09c-.35-1.39.48-2.79,1.87-3.14l3.42-.86,1.98,3.85-2.81.71.75,2.94,9.91-2.51-.74-2.94-1.52.39.55,2.16-4.28.29-.76-3.01Z"/>
    <path class="cls-1" d="m34.42,136.88l4.16-.46,1.27,11.38-18.52,2.06-1.27-11.38,4.16-.46.8,7.21,2.98-.33-.64-5.76,4.2-.47.64,5.76,3.02-.34-.8-7.21Z"/>
  </g>
  <g>
    <path class="cls-2" d="m105.88,152.71v11.49h-31.15v-66.49h31.15v11.4h-19.76v16.05h15.77v11.4h-15.77v16.15h19.76Zm-30.3-53.47v63.35l4.37-4.37v-54.61l-4.37-4.37Zm24.22,3.7l4.37-4.37h-27.92l4.37,4.37h19.19Zm.48,23.18h-14.44l-4.27,4.27h14.44l4.27-4.27Zm3.99,27.54h-18.43l-4.27,4.37h18.33l4.37-4.37Z"/>
    <path class="cls-2" d="m132.28,97.71h11.49l-19.85,66.49h-11.59l19.95-66.49Zm3.51,5.6l-2.94-4.18-19.09,63.35,5.41-4.18,16.62-54.99Zm.57-.76l5.41-3.99h-8.26l2.85,3.99Z"/>
    <path class="cls-2" d="m183.67,97.71v66.49h-11.4l-8.36-29.06v29.06h-11.4v-66.49h11.3l8.36,27.26v-27.26h11.49Zm-25.93,5.89l-4.37-4.37v63.35l4.37-4.37v-54.61Zm.38-.95l4.18-4.08h-8.26l4.08,4.08Zm5.79,29.25l8.93,30.96,3.99-3.99-17.48-53.86,4.56,26.88Zm13.58-28.3l-4.37-4.37v28.78l4.37,25.36v-49.77Zm.38-.95l4.08-4.08h-8.17l4.08,4.08Z"/>
  </g>
</svg>